<svg width="220" height="96.16639476539785" viewBox="0 0 370 82.94071343402612" class="css-1j8o68f"
    xmlns="http://www.w3.org/2000/svg">
    <defs id="SvgjsDefs20642">
        <linearGradient id="SvgjsLinearGradient20647">
            <stop id="SvgjsStop20648" stop-color="#7d141d" offset="0"></stop>
            <stop id="SvgjsStop20649" stop-color="#ff1e27" offset="1"></stop>
        </linearGradient>
    </defs>
    <g id="SvgjsG20643" featurekey="v37d4h-0"
        transform="matrix(0.9871848365627139,0,0,0.9871848365627139,-14.404299760300734,-7.88888134531134)"
        fill="url(#SvgjsLinearGradient20647)">
        <title xmlns="http://www.w3.org/2000/svg">44 all</title>
        <g xmlns="http://www.w3.org/2000/svg">
            <path
                d="M85.5,26.5C85.5,20.7,80.8,16,75,16c-5.8,0-10.5,4.7-10.5,10.5c0,4.5,2.9,8.5,7.2,10l-0.1,1.1   c-0.4,3.6-0.8,6.5-2.7,9.2c-1.5,2.2-4.1,3.3-8.7,3.6c-2.5,0.2-5.2,0.3-7.7,0.4s-5.3,0.2-8,0.4c-4.7,0.3-10.5,1.3-14.1,5.8   c-1.2,1.5-2.1,3.2-2.8,5V28.7c5.6-1.4,9.1-7.1,7.7-12.7c-1.4-5.6-7.1-9.1-12.7-7.7s-9.1,7.1-7.7,12.7c0.9,3.8,3.9,6.8,7.7,7.7v42.6   c-5.6,1.4-9.1,7-7.7,12.7c1.4,5.6,7,9.1,12.7,7.7s9.1-7,7.7-12.7c-0.6-2.7-2.3-5-4.7-6.5c0.5-5,1.1-9.4,3.6-12.6   c2.4-2.9,6.7-3.6,10.6-3.9c2.6-0.2,5.3-0.3,7.9-0.4s5.2-0.2,7.8-0.4c4.2-0.3,9.3-1.2,12.5-5.7c2.7-3.8,3.1-7.7,3.6-11.5   c0-0.4,0.1-0.8,0.2-1.3C81.7,36,85.5,31.6,85.5,26.5z">
            </path>
        </g>
    </g>
    <g id="SvgjsG20644" featurekey="UxBHKT-0"
        transform="matrix(2.1960785627823514,0,0,2.1960785627823514,89.12156941262455,13.350586975731163)"
        fill="#ffffff">
        <path
            d="M8.32 20 l-2.42 0 l-5.5 -14.24 l2.88 0 l3.82 9.94 l3.84 -9.94 l2.86 0 z M25.5 20 l-2.88 0 l-1.46 -3.84 l-4.72 0 l-1.48 3.84 l-2.86 0 l5.48 -14.24 l2.42 0 z M17.48 13.52 l2.64 0 l-1.32 -3.46 z M33.440000000000005 20 l-6.24 0 l0 -14.24 l5.28 0 c0.96 0 1.9 0.4 2.56 1.08 c0.68 0.66 1.08 1.6 1.08 2.56 c0 0.58 -0.14 1.12 -0.36 1.6 c0.38 0.22 0.74 0.48 1.04 0.8 c0.92 0.9 1.42 2.1 1.42 3.38 s-0.5 2.48 -1.42 3.4 c-0.44 0.44 -0.96 0.8 -1.54 1.04 c-0.58 0.26 -1.2 0.38 -1.82 0.38 z M29.860000000000003 17.38 l3.56 0 c1.18 -0.04 2.14 -1.02 2.14 -2.2 c0 -1.16 -0.96 -2.14 -2.12 -2.16 l-3.58 0 l0 4.36 z M29.860000000000003 10.4 l2.6 0 c0.56 0 1 -0.46 1 -1 s-0.44 -0.98 -1 -1.02 l-2.6 0 l0 2.02 z M52.379999999999995 20 l-2.88 0 l-1.46 -3.84 l-4.72 0 l-1.48 3.84 l-2.86 0 l5.48 -14.24 l2.42 0 z M44.36 13.52 l2.64 0 l-1.32 -3.46 z M66.16 20 l-2.58 0 l-6.32 -9.34 l0 9.34 l-2.68 0 l0 -14.24 l2.6 0 l6.3 9.32 l0 -9.32 l2.68 0 l0 14.24 z M83.04 20 l-3.34 0 l-5.3 -7.44 l-2.28 2.16 l0 5.28 l-2.66 0 l0 -14.24 l2.66 0 l0 5.34 l5.68 -5.34 l3.84 0 l-5.22 4.94 z M85.92000000000002 20.2 c-0.88 0 -1.58 -0.7 -1.58 -1.56 c0 -0.42 0.16 -0.82 0.46 -1.1 c0.3 -0.3 0.7 -0.46 1.12 -0.46 c0.86 0 1.56 0.7 1.56 1.56 s-0.7 1.56 -1.56 1.56 z M94.24000000000001 20 l-4.78 0 l0 -14.24 l4.78 0 c4.02 0 7.3 3.2 7.3 7.12 s-3.28 7.12 -7.3 7.12 z M92.12 17.38 l2.12 0 c2.56 0 4.64 -2.02 4.64 -4.5 s-2.08 -4.5 -4.64 -4.5 l-2.12 0 l0 9 z M112.86000000000001 20 l-9.2 0 l0 -14.24 l9.38 0 l0 2.6 l-6.7 0 l0 2.1 l5.84 0 l0 2.66 l-5.84 0 l0 4.24 l6.52 0 l0 2.64 z M122.42000000000002 20 l-2.42 0 l-5.5 -14.24 l2.88 0 l3.82 9.94 l3.84 -9.94 l2.86 0 z">
        </path>
    </g>
</svg>