<svg width="396" height="257.40534652740405" viewBox="0 0 349.99999999999994 227.50472546613992" class="css-1j8o68f" xmlns="http://www.w3.org/2000/svg"><defs id="SvgjsDefs8820"><linearGradient id="SvgjsLinearGradient8827"><stop id="SvgjsStop8828" stop-color="#7d141d" offset="0"></stop><stop id="SvgjsStop8829" stop-color="#ff1e27" offset="1"></stop></linearGradient></defs><g id="SvgjsG8821" featurekey="mugSzh-0" transform="matrix(2.058823529411765,0,0,2.058823529411765,105,0)" fill="url(#SvgjsLinearGradient8827)"><path xmlns="http://www.w3.org/2000/svg" fill="url(#SvgjsLinearGradient8827)" fill-rule="evenodd" d="M237.914003,469.416492 C237.202036,470.438244 235.739459,470.567886 234.85887,469.687297 L216.585786,451.414214 C215.804738,450.633165 215.804738,449.366835 216.585786,448.585786 L234.85887,430.312703 C235.739459,429.432114 237.202036,429.561756 237.914003,430.583508 C241.853914,436.237725 244,442.960717 244,450 C244,457.039283 241.853914,463.762275 237.914003,469.416492 Z M182.085997,430.583508 C182.797964,429.561756 184.260541,429.432114 185.14113,430.312703 L203.414214,448.585786 C204.195262,449.366835 204.195262,450.633165 203.414214,451.414214 L185.14113,469.687297 C184.260541,470.567886 182.797964,470.438244 182.085997,469.416492 C178.146086,463.762275 176,457.039283 176,450 C176,442.960717 178.146086,436.237725 182.085997,430.583508 Z M229.416492,477.914003 C223.762275,481.853914 217.039283,484 210,484 C202.960717,484 196.237725,481.853914 190.583508,477.914003 C189.561756,477.202036 189.432114,475.739459 190.312703,474.85887 L208.585786,456.585786 C209.366835,455.804738 210.633165,455.804738 211.414214,456.585786 L229.687297,474.85887 C230.567886,475.739459 230.438244,477.202036 229.416492,477.914003 Z M190.583508,422.085997 C196.237725,418.146086 202.960717,416 210,416 C217.039283,416 223.762275,418.146086 229.416492,422.085997 C230.438244,422.797964 230.567886,424.260541 229.687297,425.14113 L211.414214,443.414214 C210.633165,444.195262 209.366835,444.195262 208.585786,443.414214 L190.312703,425.14113 C189.432114,424.260541 189.561756,422.797964 190.583508,422.085997 Z" transform="translate(-176 -416)"></path></g><g id="SvgjsG8822" featurekey="PPkF4s-0" transform="matrix(2.834926488127534,0,0,2.834926488127534,0.05669853377570185,146.16555841350603)" fill="#ffffff"><path d="M-0.02 9.04 l3.32 0 l2.56 5.38 l2.56 -5.38 l3.34 0 l-5.9 11.44 z M21.34 18.9 q-0.38 0.52 -1.31 0.93 t-2.03 0.41 q-1.7 0 -2.95 -0.76 t-1.91 -2.07 t-0.66 -2.91 t0.66 -2.91 t1.91 -2.07 t2.95 -0.76 q1.14 0 2.01 0.39 t1.33 0.99 l0 -1.14 l2.96 0 l0 11 l-2.96 0 l0 -1.1 z M20.64 12.25 q-0.82 -0.87 -2.2 -0.87 q-1.4 0 -2.21 0.87 t-0.81 2.25 q0 1.34 0.83 2.22 t2.19 0.88 q1.4 0 2.21 -0.83 t0.81 -2.27 q0 -1.38 -0.82 -2.25 z M27.259999999999998 20 l0 -15.12 l2.96 0 l0 5.26 q0.46 -0.6 1.33 -0.99 t2.01 -0.39 q1.7 0 2.95 0.76 t1.91 2.07 t0.66 2.91 t-0.66 2.91 t-1.91 2.07 t-2.95 0.76 q-1.1 0 -2.03 -0.41 t-1.31 -0.93 l0 1.1 l-2.96 0 z M30.91 16.77 q0.81 0.83 2.21 0.83 q1.36 0 2.19 -0.88 t0.83 -2.22 q0 -1.38 -0.81 -2.25 t-2.21 -0.87 q-1.38 0 -2.2 0.87 t-0.82 2.25 q0 1.44 0.81 2.27 z M49.86 18.9 q-0.38 0.52 -1.31 0.93 t-2.03 0.41 q-1.7 0 -2.95 -0.76 t-1.91 -2.07 t-0.66 -2.91 t0.66 -2.91 t1.91 -2.07 t2.95 -0.76 q1.14 0 2.01 0.39 t1.33 0.99 l0 -1.14 l2.96 0 l0 11 l-2.96 0 l0 -1.1 z M49.16 12.25 q-0.82 -0.87 -2.2 -0.87 q-1.4 0 -2.21 0.87 t-0.81 2.25 q0 1.34 0.83 2.22 t2.19 0.88 q1.4 0 2.21 -0.83 t0.81 -2.27 q0 -1.38 -0.82 -2.25 z M64.99 10.02 q1.03 1.22 1.03 3.48 l0 6.5 l-3.06 0 l0 -6.5 q0 -2.22 -2.12 -2.22 q-0.82 0 -1.48 0.65 t-0.62 2.25 l0 5.82 l-2.98 0 l0 -11 l2.98 0 l0 0.98 q0.54 -0.54 1.36 -0.86 t1.58 -0.32 q2.28 0 3.31 1.22 z M71.96000000000001 4.880000000000001 l0 8.8 l3.74 -4.62 l3.66 0 l-4.42 5.12 l4.6 5.82 l-3.62 0 l-2.88 -3.6 l-1.08 1.24 l0 2.36 l-3 0 l0 -15.12 l3 0 z M83.23 19.69 q-0.49 0.47 -1.17 0.47 t-1.16 -0.47 t-0.48 -1.13 q0 -0.64 0.48 -1.12 t1.16 -0.48 t1.17 0.48 t0.49 1.12 q0 0.66 -0.49 1.13 z M93.94 18.9 q-0.38 0.52 -1.31 0.93 t-2.03 0.41 q-1.7 0 -2.95 -0.76 t-1.91 -2.07 t-0.66 -2.91 t0.66 -2.91 t1.91 -2.07 t2.95 -0.76 q1.14 0 2.01 0.39 t1.33 0.99 l0 -5.26 l2.96 0 l0 15.12 l-2.96 0 l0 -1.1 z M93.24 12.25 q-0.82 -0.87 -2.2 -0.87 q-1.4 0 -2.21 0.87 t-0.81 2.25 q0 1.34 0.83 2.22 t2.19 0.88 q1.4 0 2.21 -0.83 t0.81 -2.27 q0 -1.38 -0.82 -2.25 z M102.67 19.74 q-1.37 -0.54 -2.35 -1.83 t-0.98 -3.37 t0.99 -3.36 t2.37 -1.82 t2.62 -0.54 q1.44 0 2.74 0.64 t2.13 1.88 t0.87 2.94 q0 0.52 -0.02 0.9 t-0.04 0.48 l-8.68 0 q0.24 1.16 1.2 1.58 t1.8 0.42 q1.08 0 1.72 -0.39 t1.1 -0.89 l2.32 1.34 q-1.88 2.56 -5.14 2.56 q-1.28 0 -2.65 -0.54 z M103.28 12.05 q-0.78 0.61 -0.88 1.49 l5.5 0 q-0.06 -0.52 -0.4 -1 t-0.91 -0.79 t-1.29 -0.31 q-1.24 0 -2.02 0.61 z M111.66000000000001 9.04 l3.32 0 l2.56 5.38 l2.56 -5.38 l3.34 0 l-5.9 11.44 z"></path></g><g id="SvgjsG8823" featurekey="uwAHB0-0" transform="matrix(0.9075755128503512,0,0,0.9075755128503512,76.90924166973666,209.02648747056662)" fill="#c2797d"><path d="M3.6 15.04 l6.5 0 l-3.2 -7.76 z M7.64 5.84 l5.96 14.16 l-1.48 0 l-1.54 -3.76 l-7.5 0 l-1.6 3.76 l-1.38 0 l6.18 -14.16 l1.36 0 z M27.628 5.84 l0 14.16 l-1.32 0 l0 -14.16 l1.32 0 z M59.364 5.84 l0 14.16 l-1.32 0 l0 -14.16 l1.32 0 z M77.952 5.48 q2.46 0 3.86 1.78 l-1.14 0.82 q-1.04 -1.4 -2.76 -1.4 q-1.4 0 -2.27 0.72 t-0.91 1.96 q0 1.08 0.66 1.75 t2.3 1.13 q2.16 0.64 2.88 1.13 t1.09 1.21 t0.37 1.8 q0 1.72 -1.23 2.83 t-3.17 1.15 q-3.06 0 -4.6 -2.14 l1.26 -0.84 q1.06 1.76 3.24 1.78 q1.42 0 2.3 -0.79 t0.88 -1.99 q0 -0.7 -0.25 -1.15 t-0.76 -0.78 t-1.3 -0.6 t-1.85 -0.63 q-1.6 -0.52 -2.37 -1.46 t-0.77 -2.4 q0 -1.72 1.29 -2.8 t3.25 -1.08 z M111.08799999999998 5.84 l4.28 6.72 l4.38 -6.72 l1.48 0 l-5.2 8.06 l0 6.1 l-1.32 0 l0 -6.1 l-5.2 -8.06 l1.58 0 z M134.11599999999999 12.92 q0 2.7 1.66 4.45 t4.34 1.79 q2.7 0 4.34 -1.77 t1.66 -4.47 q0 -2.74 -1.64 -4.47 t-4.38 -1.77 q-2.68 0 -4.32 1.76 t-1.66 4.48 z M140.11599999999999 5.48 q2.16 0 3.82 0.95 t2.57 2.66 t0.93 3.83 q0 3.26 -2.06 5.33 t-5.26 2.11 q-3.22 0 -5.24 -2.09 t-2.08 -5.35 q0.02 -3.26 2.04 -5.32 t5.28 -2.12 z M162.12399999999997 5.84 l0 8.5 q0 2.3 0.95 3.54 t2.89 1.28 q3.8 0 3.84 -5.02 l0 -8.3 l1.32 0 l0 8.64 q0 2.78 -1.3 4.32 t-3.86 1.56 q-2.52 0 -3.83 -1.53 t-1.33 -4.25 l0 -8.74 l1.32 0 z M189.63199999999998 12.08 q1.54 0 2.38 -0.69 t0.84 -1.83 t-0.82 -1.82 t-2.44 -0.7 l-2.86 0 l0 5.04 l2.9 0 z M189.23199999999997 5.84 q4.9 0 4.94 3.72 q0 3.14 -3.62 3.64 l4.12 6.8 l-1.5 0 l-3.98 -6.72 l-2.46 0 l0 6.72 l-1.32 0 l0 -14.16 l3.82 0 z M211.97999999999996 5.48 q2.46 0 3.86 1.78 l-1.14 0.82 q-1.04 -1.4 -2.76 -1.4 q-1.4 0 -2.27 0.72 t-0.91 1.96 q0 1.08 0.66 1.75 t2.3 1.13 q2.16 0.64 2.88 1.13 t1.09 1.21 t0.37 1.8 q0 1.72 -1.23 2.83 t-3.17 1.15 q-3.06 0 -4.6 -2.14 l1.26 -0.84 q1.06 1.76 3.24 1.78 q1.42 0 2.3 -0.79 t0.88 -1.99 q0 -0.7 -0.25 -1.15 t-0.76 -0.78 t-1.3 -0.6 t-1.85 -0.63 q-1.6 -0.52 -2.37 -1.46 t-0.77 -2.4 q0 -1.72 1.29 -2.8 t3.25 -1.08 z"></path></g></svg>