<svg width="324.50272651006713" height="261.35625" viewBox="0 0 370 298" class="css-1j8o68f" xmlns="http://www.w3.org/2000/svg"><defs id="SvgjsDefs17002"><linearGradient id="SvgjsLinearGradient17009"><stop id="SvgjsStop17010" stop-color="#7d141d" offset="0"></stop><stop id="SvgjsStop17011" stop-color="#ff1e27" offset="1"></stop></linearGradient></defs><g id="SvgjsG17003" featurekey="rootContainer" transform="matrix(1,0,0,1,0,0)" fill="url(#SvgjsLinearGradient17009)"><path xmlns="http://www.w3.org/2000/svg" fill-rule="evenodd" d="M5,65 L185,0 L365, 65 L185, 10 z M5,218 L185,298 L365,213 L185, 288 z"></path></g><g id="SvgjsG17004" featurekey="symbolFeature-0" transform="matrix(1.4102640522324483,0,0,1.4102640522324483,-20.5775710861439,78.73016950669809)" fill="#bf1922"><title xmlns="http://www.w3.org/2000/svg">44 all</title><g xmlns="http://www.w3.org/2000/svg"><path d="M85.5,26.5C85.5,20.7,80.8,16,75,16c-5.8,0-10.5,4.7-10.5,10.5c0,4.5,2.9,8.5,7.2,10l-0.1,1.1   c-0.4,3.6-0.8,6.5-2.7,9.2c-1.5,2.2-4.1,3.3-8.7,3.6c-2.5,0.2-5.2,0.3-7.7,0.4s-5.3,0.2-8,0.4c-4.7,0.3-10.5,1.3-14.1,5.8   c-1.2,1.5-2.1,3.2-2.8,5V28.7c5.6-1.4,9.1-7.1,7.7-12.7c-1.4-5.6-7.1-9.1-12.7-7.7s-9.1,7.1-7.7,12.7c0.9,3.8,3.9,6.8,7.7,7.7v42.6   c-5.6,1.4-9.1,7-7.7,12.7c1.4,5.6,7,9.1,12.7,7.7s9.1-7,7.7-12.7c-0.6-2.7-2.3-5-4.7-6.5c0.5-5,1.1-9.4,3.6-12.6   c2.4-2.9,6.7-3.6,10.6-3.9c2.6-0.2,5.3-0.3,7.9-0.4s5.2-0.2,7.8-0.4c4.2-0.3,9.3-1.2,12.5-5.7c2.7-3.8,3.1-7.7,3.6-11.5   c0-0.4,0.1-0.8,0.2-1.3C81.7,36,85.5,31.6,85.5,26.5z"></path></g></g><g id="SvgjsG17005" featurekey="nameFeature-0" transform="matrix(0.9341836168004348,0,0,0.9341836168004348,119.81755295322674,125.45400245422763)" fill="#f0e8eb"><path d="M21.836 11.289000000000001 l7.9297 0 l-10.645 28.711 l-8.3594 0 l-10.566 -28.711 l7.9297 0 l6.8555 20.176 z M51.89875 40 l-1.8555 -5.3125 l-11.484 0 l-1.8359 5.3125 l-7.5586 0 l10.566 -28.711 l9.1602 0 l10.566 28.711 l-7.5586 0 z M40.68775 28.555 l7.2266 0 l-3.6133 -10.391 z M78.58215625 24.766 c3.0469 0.9375 5.0781 2.9297 5.0781 7.0313 c0 5 -2.793 8.2031 -9.5508 8.2031 l-12.246 0 l0 -28.711 l9.668 0 c6.8945 0 10.098 2.9102 10.098 8.0273 c0 2.4023 -0.97656 4.3555 -3.0469 5.4492 z M71.66815625 17.363 l-2.6563 0 l0 5.0781 l2.6563 0 c2.4805 0 3.1445 -1.1133 3.1445 -2.6367 c0 -1.4453 -0.83984 -2.4414 -3.1445 -2.4414 z M72.66415625 33.7109 c3.2031 0 3.7891 -1.3867 3.7891 -2.7539 c0 -1.3477 -0.50781 -2.9102 -3.7891 -2.9102 l-3.6523 0 l0 5.6641 l3.6523 0 z M106.7503125 40 l-1.8555 -5.3125 l-11.484 0 l-1.8359 5.3125 l-7.5586 0 l10.566 -28.711 l9.1602 0 l10.566 28.711 l-7.5586 0 z M95.5393125 28.555 l7.2266 0 l-3.6133 -10.391 z M136.51971875 11.289000000000001 l7.4414 0 l0 28.711 l-8.8477 0 l-10.957 -18.633 l0 18.633 l-7.4414 0 l0 -28.711 l8.75 0 l11.055 18.535 l0 -18.535 z M166.67934375 40 l-8.1055 -11.523 l-1.7773 0 l0 11.523 l-7.4414 0 l0 -28.711 l7.4414 0 l0 10.742 l1.7188 0 l8.3984 -10.742 l9.043 0 l-10.996 13.75 l11.191 14.961 l-9.4727 0 z M181.80076875 40.39063 c-2.0898 0 -3.8477 -1.7578 -3.8477 -3.8281 c0 -2.1289 1.7578 -3.8867 3.8477 -3.8867 c2.1094 0 3.8672 1.7578 3.8672 3.8867 c0 2.0703 -1.7578 3.8281 -3.8672 3.8281 z M190.49606875 40 l0 -28.711 l11.113 0 c9.3945 0 13.965 5.625 13.965 14.355 c0 8.7109 -4.5703 14.355 -13.965 14.355 l-11.113 0 z M197.93796875 33.4766 l3.2813 0 c4.5117 0 6.5234 -2.5977 6.5234 -7.832 c0 -5.2539 -2.0117 -7.8906 -6.5234 -7.8906 l-3.2813 0 l0 15.723 z M236.63328125 17.754 l-10 0 l0 4.6875 l8.9063 0 l0 6.4063 l-8.9063 0 l0 4.6289 l10 0 l0 6.5234 l-17.441 0 l0 -28.711 l17.441 0 l0 6.4648 z M259.87896875 11.289000000000001 l7.9297 0 l-10.645 28.711 l-8.3594 0 l-10.566 -28.711 l7.9297 0 l6.8555 20.176 z"></path></g></svg>