<svg width="396" height="107.21376771593306" viewBox="0 0 375 101.5281891249366" class="css-1j8o68f" xmlns="http://www.w3.org/2000/svg"><defs id="SvgjsDefs5675"></defs><g id="SvgjsG5676" featurekey="0LeO0L-0" transform="matrix(7.255029176160435,0,0,7.255029176160435,-0.42496271682459635,-43.57363634710281)" fill="#d41464"><path d="M0.058594 6.006 l2.9688 -0.0000095367 c0.019531 0.15625 0.39388 1.9727 1.123 5.4492 l0.61523 0 l0 0.53711 l-0.74219 0 l0 -0.53711 l-1.0449 0 l0 0.53711 l1.0449 0 l0 2.5098 l0.33203 0 l0 1.2988 l0.82031 0 l0 -1.9141 l0.30273 0 l0 -1.8945 l0.5957 0 l0 -0.53711 l-0.46875 0 c0.73567 -3.4766 1.1133 -5.293 1.1328 -5.4492 l2.9688 0 c-1.0742 4.668 -1.6113 7.0476 -1.6113 7.1387 l0 2.4316 l-0.82031 0 l0 0.48828 l0.61523 0 l0 1.4258 l-1.1035 0 l0 2.5098 l-3.4766 0 c-0.039063 0 -0.13347 -0.35808 -0.2832 -1.0742 l0.89844 0 l0 -0.58594 l-1.0059 0 c-0.039063 0 -0.13021 -0.37761 -0.27344 -1.1328 c-0.071611 -0.22786 -0.93424 -3.9616 -2.5879 -11.201 z M6.9434 17.5977 l0.30274 0 c0.084639 0 0.14323 0.048828 0.17578 0.14648 l-0.068359 0.15625 c0.032549 0 0.055332 0.084639 0.06835 0.25391 l-0.097656 0 c-0.032549 0 -0.058594 -0.068359 -0.078125 -0.20508 l-0.17578 0 l0 0.20508 l-0.12695 0 l0 -0.55664 z M7.0703 17.6953 l0 0.12695 l0.15625 0 c0.032549 0 0.048828 -0.016279 0.048828 -0.048828 l0 -0.029297 c0 -0.032549 -0.016279 -0.048828 -0.048828 -0.048828 l-0.15625 0 z M6.9434 18.3594 l0.41016 0 l0 0.078125 c0 0.032549 -0.019531 0.048828 -0.058594 0.048828 l-0.22461 0 l0 0.078125 l0.22461 0 l0 0.12695 l-0.22461 0 l0 0.23438 l-0.12695 0 l0 -0.56641 z M6.9434 19.13085 l0.12695 0 l0 0.56641 l-0.12695 0 l0 -0.56641 z"></path></g><g id="SvgjsG5677" featurekey="pulpyG-0" transform="matrix(3.540718178006467,0,0,3.540718178006467,94.2918578839101,5.526051709310426)" fill="#ffffff"><path d="M5.64 5.5 l2.94 0 l-2.68 14.5 l-3.02 0 l-2.68 -14.5 l2.94 0 l0.26 1.86 l0.98 7.5 l1 -7.54 z M10.82 18.2 l-0.26 1.8 l-2.92 0 l2.62 -14.5 l3.1 0 l2.62 14.5 l-2.92 0 l-0.26 -1.8 l-1.98 0 z M11.14 15.9 l1.34 0 l-0.66 -5.14 z M19.66 8.04 l0.000019531 3.8 l1.36 0 c0.10666 0 0.19332 -0.03 0.25998 -0.09 s0.1 -0.15666 0.1 -0.29 l0 -3.14 c0 -0.18666 -0.08666 -0.28 -0.26 -0.28 l-1.46 0 z M21.42 14.46 c0 -0.16 -0.04 -0.27002 -0.12 -0.33002 s-0.18666 -0.09 -0.32 -0.09 l-1.32 0 l0 3.42 l1.46 0 c0.12 0 0.2 -0.02334 0.24 -0.07 s0.06 -0.12332 0.06 -0.22998 l0 -2.7 z M24.16 11.24 c0 0.36 -0.07 0.67 -0.21 0.93 s-0.40334 0.44334 -0.79 0.55 c0.4 0.02666 0.69 0.16666 0.87 0.42 s0.27 0.54 0.27 0.86 l0 3.76 c0 0.8 -0.16666 1.3733 -0.5 1.72 s-0.92 0.52 -1.76 0.52 l-5.26 0 l0 -14.5 l5.66 0 c0.57334 0 1.0033 0.16 1.29 0.48 s0.43 0.74666 0.43 1.28 l0 3.98 z M28.08 18.2 l-0.26 1.8 l-2.92 0 l2.62 -14.5 l3.1 0 l2.62 14.5 l-2.92 0 l-0.26 -1.8 l-1.98 0 z M28.4 15.9 l1.34 0 l-0.66 -5.14 z M34.04 5.5 l2.76 0 l1.48 5.82 l0 -5.82 l2.98 0 l0 14.5 l-2.98 0 l-1.56 -6.06 l0 6.06 l-2.68 0 l0 -14.5 z M45.42 11.72 l0.44 0 l1.48 -6.22 l3 0 l-1.74 6.68 l1.72 7.82 l-3.18 0 l-1.14 -5.98 l-0.58 0 l0 5.98 l-2.96 0 l0 -14.5 l2.96 0 l0 6.22 l0 0 z M51.18 18.66 c0 -0.42666 0.15334 -0.79332 0.46 -1.1 s0.67332 -0.46 1.1 -0.46 s0.79332 0.15334 1.1 0.46 s0.46 0.67332 0.46 1.1 s-0.15334 0.79 -0.46 1.09 s-0.67332 0.45 -1.1 0.45 s-0.79332 -0.15 -1.1 -0.45 s-0.46 -0.66334 -0.46 -1.09 z M58.379999999999995 8.04 l0 9.42 l1.36 0 c0.12 0 0.19666 -0.02334 0.23 -0.07 s0.05 -0.12332 0.05 -0.22998 l0 -8.84 c0 -0.18666 -0.08666 -0.28 -0.26 -0.28 l-1.38 0 z M62.9 17.759999999999998 c0 0.8 -0.16666 1.3733 -0.5 1.72 s-0.92 0.52 -1.76 0.52 l-5.14 0 l0 -14.5 l5.68 0 c0.57334 0 1.0033 0.16 1.29 0.48 s0.43 0.74666 0.43 1.28 l0 10.5 z M64.1 5.5 l5.64 0 l0.5 2.7 l-3.16 0 l0 3.44 l2.4 0 l0 2.5 l-2.4 0 l0 3.16 l3.04 0 l-0.5 2.7 l-5.52 0 l0 -14.5 z M76.34 5.5 l2.94 0 l-2.68 14.5 l-3.02 0 l-2.68 -14.5 l2.94 0 l0.26 1.86 l0.98 7.5 l1 -7.54 z"></path></g></svg>