<svg width="220" height="96.16639476539785" viewBox="0 0 402.6666666666667 102.75399916292028"
    class="css-1j8o68f" xmlns="http://www.w3.org/2000/svg">
    <defs id="SvgjsDefs3289"></defs>
    <g id="SvgjsG3290" featurekey="symbolContainer"
        transform="matrix(1.827116429604319,0,0,1.827116429604319,0.000013444010666910274,0.007625553794864887)"
        fill="#ffffff">
        <path xmlns="http://www.w3.org/2000/svg"
            d="M23.11 55.78L1.69 43.41A3.39 3.39 0 0 1 0 40.48V15.75a3.39 3.39 0 0 1 1.69-2.94L23.11.45a3.39 3.39 0 0 1 3.39 0l21.41 12.37a3.39 3.39 0 0 1 1.69 2.94v24.72a3.39 3.39 0 0 1-1.69 2.94L26.5 55.78a3.39 3.39 0 0 1-3.39 0z">
        </path>
    </g>
    <g id="SvgjsG3291" featurekey="monogramFeature-0"
        transform="matrix(1.313813881540871,0,0,1.313813881540871,16.788285697728355,6.13964146827017743)"
        fill="#11111">
        <path
            d="M42.42 17.4 c0.84 0 1.38 0.42 1.38 1.14 l0 0.24 c0 1.68 -2.04 1.86 -3.48 5.16 l-13.92 33.06 c-0.84 2.1 -2.1 3 -4.2 3 c-1.98 0 -3.06 -0.9 -3.96 -2.76 l-15.36 -33.24 c-1.44 -3.06 -3.48 -3.54 -3.48 -5.22 l0 -0.24 c0 -0.72 0.6 -1.14 1.44 -1.14 l16.02 0 c0.84 0 1.44 0.42 1.44 1.14 l0 0.24 c0 1.68 -3.72 2.46 -2.64 5.22 l9.66 23.88 l9.18 -23.94 c1.08 -2.76 -2.7 -3.48 -2.7 -5.16 l0 -0.24 c0 -0.72 0.54 -1.14 1.44 -1.14 l9.18 0 z">
        </path>
    </g>
    
</svg>