<svg width="220" height="96.16639476539785" viewBox="0 0 402.6666666666667 102.75399916292028"
    class="css-1j8o68f" xmlns="http://www.w3.org/2000/svg">
    <defs id="SvgjsDefs3289"></defs>
    <g id="SvgjsG3290" featurekey="symbolContainer"
        transform="matrix(1.827116429604319,0,0,1.827116429604319,0.000013444010666910274,0.007625553794864887)"
        fill="#111111">
        <path xmlns="http://www.w3.org/2000/svg"
            d="M23.11 55.78L1.69 43.41A3.39 3.39 0 0 1 0 40.48V15.75a3.39 3.39 0 0 1 1.69-2.94L23.11.45a3.39 3.39 0 0 1 3.39 0l21.41 12.37a3.39 3.39 0 0 1 1.69 2.94v24.72a3.39 3.39 0 0 1-1.69 2.94L26.5 55.78a3.39 3.39 0 0 1-3.39 0z">
        </path>
    </g>
    <g id="SvgjsG3291" featurekey="monogramFeature-0"
        transform="matrix(1.313813881540871,0,0,1.313813881540871,16.788285697728355,0.13964146827017743)"
        fill="#ffffff">
        <path
            d="M42.42 17.4 c0.84 0 1.38 0.42 1.38 1.14 l0 0.24 c0 1.68 -2.04 1.86 -3.48 5.16 l-13.92 33.06 c-0.84 2.1 -2.1 3 -4.2 3 c-1.98 0 -3.06 -0.9 -3.96 -2.76 l-15.36 -33.24 c-1.44 -3.06 -3.48 -3.54 -3.48 -5.22 l0 -0.24 c0 -0.72 0.6 -1.14 1.44 -1.14 l16.02 0 c0.84 0 1.44 0.42 1.44 1.14 l0 0.24 c0 1.68 -3.72 2.46 -2.64 5.22 l9.66 23.88 l9.18 -23.94 c1.08 -2.76 -2.7 -3.48 -2.7 -5.16 l0 -0.24 c0 -0.72 0.54 -1.14 1.44 -1.14 l9.18 0 z">
        </path>
    </g>
    <g id="SvgjsG3292" featurekey="nameFeature-0"
        transform="matrix(1.004693979892034,0,0,1.004693979892034,110.83924911652142,23.407148972163228)"
        fill="#111111">
        <path
            d="M19.2 15.52 l6.56 0 l-9.8 24.48 l-6 0 l-9.8 -24.48 l6.52 0 l6.28 17.64 z M47.57599999999999 35.04 l-9 0 l-1.76 4.96 l-6.52 0 l9.8 -24.48 l6 0 l9.8 24.48 l-6.56 0 z M40.535999999999994 29.48 l5.08 0 l-2.52 -7.12 z M82.752 27.439999999999998 c1.76 1.24 2.8 3.08 2.8 5.24 c0 4.16 -3.84 7.32 -7.84 7.32 l-13 0 l0 -24.48 l12.2 0 c3.2 0 5.84 1.72 7.24 4.56 c0.4 0.92 0.6 1.84 0.6 2.8 c0 1.8 -0.72 3.28 -2 4.56 z M70.71199999999999 21.08 l0 3.92 l6.2 0 c1.04 0 1.84 -1 1.84 -2 c0 -1.04 -0.76 -1.92 -1.84 -1.92 l-6.2 0 z M70.71199999999999 30.560000000000002 l0 3.88 l7 0 c1.08 0 1.84 -0.88 1.84 -1.92 c0 -0.52 -0.2 -1 -0.56 -1.4 c-0.36 -0.36 -0.8 -0.56 -1.28 -0.56 l-7 0 z M110.208 35.04 l-9 0 l-1.76 4.96 l-6.52 0 l9.8 -24.48 l6 0 l9.8 24.48 l-6.56 0 z M103.168 29.48 l5.08 0 l-2.52 -7.12 z M142.944 15.52 l6 0 l0 24.48 l-6 0 l-9.6 -14.32 l0 14.32 l-6 0 l0 -24.48 l6 0 l9.6 14.32 l0 -14.32 z M159.92 15.52 l6 0 l0 11.48 l7.88 -11.48 l7.44 0 l-8.56 12.24 l8.88 12.24 l-7.36 0 l-8.28 -11.52 l0 11.52 l-6 0 l0 -24.48 z M196.65599999999998 36.76 c0 2.04 -1.4 3.44 -3.44 3.44 s-3.48 -1.36 -3.48 -3.44 c0 -2.04 1.44 -3.48 3.48 -3.48 c2.12 0 3.44 1.36 3.44 3.48 z M216.31199999999998 40 l-8.6 0 l0 -24.48 l8.6 0 c7.48 0 12.6 4.88 12.6 12.24 c0 7.56 -5.4 12.24 -12.6 12.24 z M213.712 21.08 l0 13.36 l2.6 0 c4.24 0 6.6 -2.68 6.6 -6.68 c0 -0.92 -0.12 -1.76 -0.36 -2.6 c-1.04 -2.92 -3.32 -4.08 -6.24 -4.08 l-2.6 0 z M239.00799999999998 15.52 l18.2 0 l0 5.56 l-12.2 0 l0 3.92 l9.8 0 l0 5.56 l-9.8 0 l0 3.88 l12.2 0 l0 5.56 l-18.2 0 l0 -24.48 z M283.904 15.52 l6.56 0 l-9.8 24.48 l-6 0 l-9.8 -24.48 l6.52 0 l6.28 17.64 z">
        </path>
    </g>
</svg>